<svg width="50" height="50" viewBox="0 0 50 50" fill="none" xmlns="http://www.w3.org/2000/svg">
<g clip-path="url(#clip0_6_79)">
<path d="M49.5073 20.674C49.3719 20.5677 48.1062 19.625 45.4365 19.625C44.7312 19.6281 44.0281 19.6875 43.3333 19.8031C42.8167 16.3094 39.9802 14.6677 39.849 14.5917L39.1323 14.1833L38.6604 14.8542C38.0698 15.7563 37.5479 16.6875 37.2948 17.7323C36.8167 19.7271 37.1073 21.6 38.1344 23.2011C36.8927 23.8833 34.7771 23.9438 34.375 23.9583H1.64791C0.787497 23.9594 0.0895803 24.6459 0.084372 25.4938C0.0458304 28.3406 0.45208 31.2781 1.44479 33.9511C2.57916 36.8865 4.2677 39.049 6.46354 40.3719C8.92395 41.8583 12.9219 42.7083 17.4542 42.7083C19.501 42.7146 21.5448 42.5323 23.5573 42.1625C26.3552 41.6552 29.0479 40.6906 31.5229 39.3083C33.5625 38.1427 35.3979 36.6604 36.9594 34.9177C39.5687 32.0031 41.1229 28.7583 42.2792 25.874C42.4344 25.874 42.5896 25.874 42.7396 25.874C45.5969 25.874 47.3531 24.7458 48.3219 23.8011C48.9656 23.1979 49.4687 22.4636 49.7948 21.65L50 21.0583L49.5073 20.674Z" fill="#2395EC"/>
<path d="M8.33332 22.9167H5.20832C4.63332 22.9167 4.16666 22.45 4.16666 21.875V18.75C4.16666 18.175 4.63332 17.7083 5.20832 17.7083H8.33332C8.90832 17.7083 9.37499 18.175 9.37499 18.75V21.875C9.37499 22.45 8.90832 22.9167 8.33332 22.9167Z" fill="#2395EC"/>
<path d="M14.5833 22.9167H11.4583C10.8833 22.9167 10.4167 22.45 10.4167 21.875V18.75C10.4167 18.175 10.8833 17.7083 11.4583 17.7083H14.5833C15.1583 17.7083 15.625 18.175 15.625 18.75V21.875C15.625 22.45 15.1583 22.9167 14.5833 22.9167Z" fill="#2395EC"/>
<path d="M20.8333 22.9167H17.7083C17.1333 22.9167 16.6667 22.45 16.6667 21.875V18.75C16.6667 18.175 17.1333 17.7083 17.7083 17.7083H20.8333C21.4083 17.7083 21.875 18.175 21.875 18.75V21.875C21.875 22.45 21.4083 22.9167 20.8333 22.9167Z" fill="#2395EC"/>
<path d="M27.0833 22.9167H23.9583C23.3833 22.9167 22.9167 22.45 22.9167 21.875V18.75C22.9167 18.175 23.3833 17.7083 23.9583 17.7083H27.0833C27.6583 17.7083 28.125 18.175 28.125 18.75V21.875C28.125 22.45 27.6583 22.9167 27.0833 22.9167Z" fill="#2395EC"/>
<path d="M14.5833 16.6667H11.4583C10.8833 16.6667 10.4167 16.2 10.4167 15.625V12.5C10.4167 11.925 10.8833 11.4583 11.4583 11.4583H14.5833C15.1583 11.4583 15.625 11.925 15.625 12.5V15.625C15.625 16.2 15.1583 16.6667 14.5833 16.6667Z" fill="#2395EC"/>
<path d="M20.8333 16.6667H17.7083C17.1333 16.6667 16.6667 16.2 16.6667 15.625V12.5C16.6667 11.925 17.1333 11.4583 17.7083 11.4583H20.8333C21.4083 11.4583 21.875 11.925 21.875 12.5V15.625C21.875 16.2 21.4083 16.6667 20.8333 16.6667Z" fill="#2395EC"/>
<path d="M27.0833 16.6667H23.9583C23.3833 16.6667 22.9167 16.2 22.9167 15.625V12.5C22.9167 11.925 23.3833 11.4583 23.9583 11.4583H27.0833C27.6583 11.4583 28.125 11.925 28.125 12.5V15.625C28.125 16.2 27.6583 16.6667 27.0833 16.6667Z" fill="#2395EC"/>
<path d="M27.0833 10.4167H23.9583C23.3833 10.4167 22.9167 9.95001 22.9167 9.37501V6.25001C22.9167 5.67501 23.3833 5.20834 23.9583 5.20834H27.0833C27.6583 5.20834 28.125 5.67501 28.125 6.25001V9.37501C28.125 9.95001 27.6583 10.4167 27.0833 10.4167Z" fill="#2395EC"/>
<path d="M33.3333 22.9167H30.2083C29.6333 22.9167 29.1667 22.45 29.1667 21.875V18.75C29.1667 18.175 29.6333 17.7083 30.2083 17.7083H33.3333C33.9083 17.7083 34.375 18.175 34.375 18.75V21.875C34.375 22.45 33.9083 22.9167 33.3333 22.9167Z" fill="#2395EC"/>
</g>
<defs>
<clipPath id="clip0_6_79">
<rect width="50" height="50" fill="white"/>
</clipPath>
</defs>
</svg>
