<svg width="50" height="50" viewBox="0 0 50 50" fill="none" xmlns="http://www.w3.org/2000/svg">
<path d="M43.9583 23.0208L26.9792 6.04168C26.4583 5.52084 25.7292 5.20834 25 5.20834C24.2708 5.20834 23.5417 5.52084 23.0208 6.04168L19.375 9.68751L23.6458 13.9583C24.0625 13.75 24.4792 13.6458 25 13.6458C26.7708 13.6458 28.125 15 28.125 16.7708C28.125 17.2917 28.0208 17.7083 27.8125 18.125L31.9792 22.2917C32.3958 22.0833 32.8125 21.9792 33.3333 21.9792C35.1042 21.9792 36.4583 23.3333 36.4583 25.1042C36.4583 26.875 35.1042 28.2292 33.3333 28.2292C31.5625 28.2292 30.2083 26.875 30.2083 25.1042C30.2083 24.5833 30.3125 24.1667 30.5208 23.75L26.3542 19.5833C26.25 19.5833 26.1458 19.6875 26.0417 19.6875V30.5208C27.2917 30.9375 28.125 32.0833 28.125 33.4375C28.125 35.2083 26.7708 36.5625 25 36.5625C23.2292 36.5625 21.875 35.2083 21.875 33.4375C21.875 32.0833 22.7083 30.9375 23.9583 30.5208V19.5833C22.7083 19.1667 21.875 18.0208 21.875 16.6667C21.875 16.1458 21.9792 15.7292 22.1875 15.3125L17.9167 11.0417L6.04168 23.0208C5.52084 23.5417 5.20834 24.2708 5.20834 25C5.20834 25.7292 5.52084 26.4583 6.04168 26.9792L23.0208 43.9583C23.5417 44.4792 24.2708 44.7917 25 44.7917C25.7292 44.7917 26.4583 44.4792 26.9792 43.9583L43.9583 26.9792C44.4792 26.4583 44.7917 25.7292 44.7917 25C44.7917 24.2708 44.4792 23.5417 43.9583 23.0208Z" fill="#F4511E"/>
</svg>
