<svg width="19" height="20" viewBox="0 0 19 20" fill="none" xmlns="http://www.w3.org/2000/svg">
<path d="M6.49956 20C6.79221 19.8635 6.99718 19.5481 6.99718 19.181V16.7722C6.99718 16.6844 7.00377 16.5929 7.01406 16.5001C7.0083 16.5019 7.00294 16.5033 6.99718 16.5046C6.99718 16.5046 5.76239 16.5046 5.51543 16.5046C4.89803 16.5046 4.36295 16.237 4.11599 15.7017C3.82787 15.1218 3.70439 14.1404 2.96351 13.6051C2.84003 13.5159 2.92235 13.3821 3.16931 13.3821C3.41627 13.4267 3.95135 13.7836 4.28063 14.2742C4.65107 14.7649 5.02151 15.1664 5.68007 15.1664C6.70371 15.1664 7.25237 15.1106 7.58248 14.9188C7.96691 14.2992 8.49911 13.8282 9.05518 13.8282V13.817C6.72223 13.7358 5.23183 12.8954 4.53788 11.5978C3.02937 11.6166 1.71596 11.7785 0.966434 11.9132C0.942562 11.7673 0.921982 11.6206 0.904283 11.4729C1.64393 11.3409 2.89766 11.1843 4.33908 11.1544C4.29298 11.0313 4.25305 10.9051 4.2193 10.7757C2.77418 10.6963 1.52703 10.7583 0.84954 10.819C0.841308 10.6709 0.830195 10.5232 0.828549 10.3734C1.50728 10.3131 2.72067 10.2529 4.12875 10.3238C4.09623 10.1008 4.07524 9.87287 4.07524 9.63556C4.07524 8.87724 4.3222 8.07432 4.77496 7.40521C4.56916 6.64689 4.28104 5.04104 4.85728 4.46115C5.9686 4.46115 6.75063 5.04104 7.12107 5.39789C7.82038 5.0852 8.60242 4.90677 9.46678 4.90677C10.3311 4.90677 11.1132 5.0852 11.7717 5.39745C12.1422 5.04059 12.9242 4.4607 14.0355 4.4607C14.6529 5.0852 14.3236 6.69105 14.1178 7.40476C14.5706 8.07387 14.8176 8.83219 14.7764 9.63511C14.7764 9.85101 14.7579 10.0593 14.7311 10.2636C16.1713 10.1869 17.4176 10.2485 18.1079 10.3091C18.1071 10.4595 18.0943 10.6062 18.0869 10.7548C17.3991 10.6932 16.1215 10.6299 14.6463 10.7151C14.6097 10.8649 14.5653 11.0108 14.5126 11.1522C15.9721 11.1727 17.2559 11.3257 18.0309 11.4595C18.0132 11.6076 17.9926 11.7544 17.9688 11.8998C17.1818 11.7633 15.8404 11.6036 14.3142 11.5956C13.6289 12.8794 12.1656 13.7167 9.87838 13.8143V13.8282C10.9485 13.8282 11.9364 15.5678 11.9364 16.7722V19.181C11.9364 19.5481 12.1413 19.8635 12.434 20C16.2047 18.6475 18.9336 14.7935 18.9336 10.2596C18.9336 4.60255 14.6871 0 9.46678 0C4.24647 0 0 4.60255 0 10.2596C0 14.7935 2.7289 18.6475 6.49956 20Z" fill="white"/>
</svg>
